<?xml version="1.0" standalone="no"?>
<!DOCTYPE svg PUBLIC "-//W3C//DTD SVG 20010904//EN"
 "http://www.w3.org/TR/2001/REC-SVG-20010904/DTD/svg10.dtd">
<svg version="1.0" xmlns="http://www.w3.org/2000/svg"
 width="1500.000000pt" height="1500.000000pt" viewBox="0 0 1500.000000 1500.000000"
 preserveAspectRatio="xMidYMid meet">

<g transform="translate(0.000000,1500.000000) scale(0.100000,-0.100000)"
fill="#000000" stroke="none">
<path d="M0 7500 l0 -7500 7500 0 7500 0 0 7500 0 7500 -7500 0 -7500 0 0
-7500z m10440 5 l0 -2945 -2945 0 -2945 0 0 2938 c0 1616 3 2942 7 2945 3 4
1329 7 2945 7 l2938 0 0 -2945z"/>
<path d="M4740 7495 l0 -2765 2765 0 2765 0 0 2765 0 2765 -2765 0 -2765 0 0
-2765z m2486 1335 c111 -272 251 -618 312 -768 l111 -272 -187 2 -187 3 -51
145 -52 145 -293 0 -293 0 -52 -145 -52 -145 -186 -3 -186 -2 13 32 c7 18 148
365 313 771 l299 738 145 -3 145 -3 201 -495z m1286 472 c127 -47 215 -126
273 -247 98 -204 55 -449 -106 -600 -45 -42 -137 -95 -166 -95 -7 0 -13 -5
-13 -11 0 -5 95 -131 210 -279 116 -148 210 -271 210 -274 0 -3 -97 -6 -215
-6 l-215 0 -177 266 -178 267 -3 -267 -2 -266 -170 0 -170 0 0 771 0 771 333
-4 c309 -4 336 -6 389 -26z m-1182 -2382 l0 -160 -215 0 -215 0 0 -610 0 -610
-175 0 -175 0 0 610 0 610 -220 0 -220 0 0 153 c0 85 3 157 7 160 3 4 278 7
610 7 l603 0 0 -160z m1241 -605 c170 -418 309 -763 309 -767 0 -5 -82 -8
-183 -8 l-182 0 -54 150 -54 150 -291 0 -291 0 -54 -150 -53 -150 -185 0
c-147 0 -184 3 -180 13 3 7 141 348 307 757 166 410 305 751 307 758 4 9 40
12 150 10 l146 -3 308 -760z"/>
<path d="M6784 8649 c-49 -139 -90 -256 -92 -261 -2 -4 80 -8 182 -8 102 0
186 4 186 9 0 13 -172 495 -179 504 -4 4 -47 -106 -97 -244z"/>
<path d="M8130 8830 l0 -222 124 4 c122 3 125 4 163 34 59 48 87 106 87 184 0
78 -28 136 -87 184 -38 30 -41 31 -163 34 l-124 4 0 -222z"/>
<path d="M8026 6407 c-49 -139 -91 -258 -94 -264 -3 -10 37 -13 182 -13 102 0
186 2 186 5 0 4 -149 426 -177 502 -6 17 -27 -32 -97 -230z"/>
</g>
</svg>
